<svg xmlns="http://www.w3.org/2000/svg" viewBox="0 0 400 391.3" fill="red">
  <path d="M196.4 3.6L193 7l3.5 3.4 3.4 3.4 3.4-3.4 3.5-3.4-3.3-3.3c-4-4-3.3-4-7.2 0m-27 27.2l-17 17 3.4 3.4 3.4 3.4 13.6-13.7 13.6-13.6 3.5 3.4 3.4 3.4-13.6 13.7L166 61.4l10.2 10.2 10.2 10.2 7-6.8 6.8-6.9L207 75l6.6 6.8 10.2-10.2L234 61.4 220.5 48A369.2 369.2 0 01207 34c0-.2 1.5-1.8 3.3-3.6l3.3-3.2 13.6 13.6 13.6 13.7 3.5-3.5 3.4-3.4-17.1-17-17-17.1-6.7 6.7a89.5 89.5 0 01-7 6.8c-.1 0-3.3-3-7-6.7l-6.6-6.6-17 17m34.3 13.6l3.3 3.3-3.5 3.4-3.4 3.5-3.4-3.5-3.5-3.4 3.3-3.3c4-3.9 3.3-3.9 7.2 0m-75 27.3l-17 17 3.4 3.4 3.3 3.3 17.1-17 17-17.2-3.3-3.3a36.8 36.8 0 00-3.5-3.3s-7.8 7.7-17 17.1M190 57.9l3.3 3.4-3.4 3.4-3.5 3.4-3.4-3.4-3.4-3.4 3.3-3.4 3.5-3.3c.2 0 1.7 1.5 3.6 3.3m27.3 6.8c-3.9 4-3.3 4-7.2 0l-3.2-3.3 3.4-3.4 3.4-3.4 3.5 3.4 3.4 3.4-3.3 3.3m33.8-6.7l-3.4 3.4 17 17 17 17L285 92l3.4-3.5-17-17-17-17-3.4 3.5M149 78.5l-10.2 10.2 10 10 10.4 10c.2 0 4.9-4.5 10.4-10l10-10-10-10.2a501.4 501.4 0 00-10.3-10.2L149 78.5m81.8-.2a414 414 0 00-10 10.2l10 10.4 10 10.2L251.2 99l10.1-10.2-10-10.2a695 695 0 00-10.3-10.2l-10.1 10M244.3 92l-3.5 3.4-3.4-3.4-3.4-3.5 3.4-3.4 3.4-3.4 3.5 3.4 3.4 3.4-3.4 3.5m-81.5-6.7l3.2 3.2-3.4 3.5-3.4 3.4-3.5-3.4-3.4-3.5 3.3-3.2c3.9-4 3.3-4 7.2 0m33.8 0l-3.3 3.4 3.4 3.4 3.3 3.3 3.4-3.4 3.5-3.5-3.3-3.2c-3.9-4-3-4-7 0m-95.3 13.5l-3.3 3.3 3.4 3.4 3.4 3.4 3.3-3.3 3.4-3.3-3.5-3.4-3.4-3.4-3.3 3.3m81.8.1l-3.3 3.4 3.3 3.3 3.3 3.3 3.4-3.4 3.3-3.4-3.3-3.3-3.3-3.3L183 99m27.2 0l-3.4 3.4 3.3 3.3 3.4 3.3 3.4-3.4 3.4-3.4-3.3-3.4-3.4-3.3-3.4 3.4m81.7 0l-3.5 3.5 3.3 3.2c3.9 4 3.3 4 7.2 0l3.2-3.2-3.4-3.5-3.4-3.4-3.4 3.4m40.9 20.5c-4 4-4 3.4 0 7.4s3.4 4 7.4 0 4-3.3 0-7.4c-4-4-3.4-4-7.4 0M0 152.3v34.1H29.3v-29.2H9.8v-9.8h19.5v-29.2H0v34.1m39 0v34.1H68.3v-29.2h-9.8v19.5h-9.8V147.4h19.6v-29.2H39v34.1M78 123v5H146.3v-9.8H78v4.8m78.1 14.7v19.5h-9.8v-19.5h-9.8v29.2h48.9v-48.7h-9.8v39H166v-39H156v19.5m39 9.7v29.3h-58.5v9.7H204.9v-39h9.7v39H283v-9.8h-58.5v-58.4h-9.8v19.5h-9.8v-19.5h-9.7v29.2m39-4.9V167H263.4v-48.7H234.1v24.3m39 0V167h9.8v-19.5h19.5v-29.2h-29.2v24.3m39 0V167H341.5v-29.2H322v-19.5h-9.8v24.3m39 0V167h9.8v-48.7h-9.8v24.3m19.5-9.7v14.6h19.5v9.8h-19.5v19.5h-78v9.7h87.8V167h9.7v19.6h9.8V118.1H370.7v14.6m-352.6-3.5c1.8 1.7 3.2 3.3 3.2 3.5a44 44 0 01-6.7 6.7c-.4 0-6.7-6.2-6.7-6.7s6.3-6.7 6.7-6.7c.2 0 1.8 1.4 3.5 3.2m39 0c1.8 1.7 3.2 3.3 3.2 3.5a44 44 0 01-6.7 6.7c-.4 0-6.6-6.2-6.6-6.7s6.2-6.7 6.6-6.7c.2 0 1.8 1.4 3.6 3.2m234.1 0c1.8 1.7 3.2 3.3 3.2 3.5a44 44 0 01-6.7 6.7c-.5 0-6.7-6.2-6.7-6.7s6.2-6.7 6.7-6.7c.2 0 1.8 1.4 3.5 3.2m97.8.2l3.3 3.3-3.6 3.6-3.6 3.6-3.4-3.4-3.5-3.4 3.5-3.6c4.2-4.2 3.3-4.2 7.3-.1m-135.4 13v14.7h-9.8V127.9h9.8v14.6M78 162.1v24.3H107.3v-39h9.8v39h9.7v-48.7H97.6v39h-9.8v-39H78V162m252.3-13.3c1.8 1.7 3.2 3.3 3.2 3.5a44 44 0 01-6.7 6.7c-.4 0-6.7-6.2-6.7-6.7s6.3-6.7 6.7-6.7c.2 0 1.8 1.4 3.5 3.2m-36.4 9.6c-4 4-4 3.3 0 7.4 4 4 3.3 4 7.4 0 4-4.1 4-3.4 0-7.5-4.1-4-3.4-4-7.4 0M18 168.4c1.8 1.7 3.2 3.3 3.2 3.5a44 44 0 01-6.7 6.7c-.4 0-6.7-6.2-6.7-6.7 0-.4 6.3-6.7 6.7-6.7.2 0 1.8 1.5 3.5 3.2m178.2 37.4c-4 4-4 3.4 0 7.4s3.4 4 7.4 0 4-3.4 0-7.4-3.4-4-7.4 0m39 0c-4 4-4 3.4 0 7.4s3.4 4 7.4 0 4-3.4 0-7.4-3.4-4-7.4 0M78 238.7v34.1H166v-9.7h-58.6v-58.6h-9.7v58.6h-9.8v-58.6H78v34.2m39-19.5v14.6h19.6v9.7H117v9.8h29.2v-48.8h-9.8V224h-9.7v-19.5H117v14.7m39.1 9.7v24.4h9.8v-9.8h9.8v9.8h9.7v-19.5h-19.5V224h19.5v-19.5h-9.8v9.8H166v-9.8H156V229m58.5-14.6v9.7h-19.5v39.1h-19.5v9.8H205v-39.1h9.7v39h9.8V204.5h-9.8v9.8m39 19.5V263h-19.5v9.8H263.4v-19.6h9.8v19.5H322v-9.7h-39.1V244v-39.5h-9.7v39h-9.8v-39h-9.7v29.3m39-4.9v24.4h9.7v-39H322v-9.8H292.7V229m19-7l-3.6 3.6 3.3 3.3 3.3 3.4-3.3 3.3-3.4 3.3 3.4 3.4 3.3 3.3-3.3 3.4-3.4 3.3 3.5 3.4c4 4.2 3.4 4.2 7.3.3 3.8-3.8 3.8-3.5 0-7.3l-3-3 3-3.1c1.8-1.7 3.2-3.3 3.2-3.6 0-.3-1.4-2-3.1-3.7l-3-3 3-3.1c3.8-3.8 3.8-3.5-.3-7.5l-3.3-3.4-3.6 3.7M234 238.7v14.6h9.8V224h-9.8v14.7m-84.8 53.7l-10.2 10.2 10.2 10.2 10.2 10.2 10.2-10.2 10.2-10.2-10.2-10.2-10.2-10.2-10.2 10.2m61.4-6.8l-3.5 3.5 3.3 3.2c3.9 4 3.3 4 7.2 0l3.2-3.2-3.4-3.5-3.4-3.4-3.4 3.4m20.3 6.8l-10.2 10.2 10.2 10.2 10.2 10.2 10.2-10.2 10.2-10.2-10.2-10.2-10.2-10.2-10.2 10.2m61.3-6.8l-3.4 3.5 3.2 3.2c4 4 3.3 4 7.3 0l3.2-3.2-3.4-3.5-3.5-3.4-3.4 3.4m-190.6.2l-3.3 3.2 3.4 3.4 3.4 3.3 3.3-3.3 3.3-3.3-3.2-3.3c-3.9-3.9-3-3.9-7 0m81.8 0l-3.3 3.3 3.4 3.3 3.3 3.3 3.3-3.3 3.4-3.3-3.3-3.3a42.7 42.7 0 00-3.4-3.2l-3.4 3.2m-68 13.5l-3.4 3.3 17 17 17 17 3.3-3.4 3.4-3.3-17-17-17-17-3.3 3.4m47.7.1l3.3 3.4-3.4 3.3-3.3 3.4-3.4-3.4-3.5-3.5 3.4-3.3c1.8-1.9 3.4-3.3 3.5-3.3l3.4 3.4m34-.1l-3.4 3.3 3.4 3.5 3.4 3.4 3.4-3.4 3.3-3.3-3.4-3.4-3.4-3.5-3.4 3.4m47.6-.2c4 3.8 4 3.2 0 7.1l-3.2 3.3-3.5-3.4-3.4-3.5 3.3-3.3c4-4 3-4 6.8-.2m20.4 13.8l-17 17 3.5 3.4 3.4 3.5 17-17c9.2-9.2 16.8-17 16.8-17.2 0-.3-6.1-6.7-6.5-6.7L265 313m-88.5 6.9l-10.1 10.1 13.6 13.6 13.7 13.7-3.5 3.4-3.4 3.4-13.6-13.6-13.7-13.6-3.3 3.3-3.3 3.4 17 17 17.1 17.1 6.7-6.9 6.6-6.9 6.9 7 6.9 6.8 17-17 17-17-3.3-3.3-3.3-3.5c-.1-.1-6.3 6-13.8 13.4L214.1 364l-3.4-3.5-3.5-3.4 13.7-13.6 13.6-13.7-3-2.8-10.3-10.1-7.3-7.3-6.8 6.8-6.7 6.8-6.7-6.7-6.9-6.7-10.3 10m13.8 13.5l-3.5 3.4-3.3-3.3-3.4-3.4 3.5-3.4 3.4-3.5 3.3 3.4 3.4 3.3-3.4 3.5m27.2.1l-3.4 3.5-3.4-3.5-3.5-3.4 3.5-3.4 3.4-3.5 3.4 3.5 3.4 3.4-3.4 3.4M204 340c3.8 3.9 3.8 3.3-.1 7.2l-3.3 3.2-3.4-3.4-3.4-3.4 3.3-3.4c4-4 3.1-4 6.9-.2m-6.9 41l-3.3 3.4 3.4 3.4 3.4 3.4 3.4-3.3 3.3-3.3-3.4-3.5-3.4-3.4-3.4 3.3" fill-rule="evenodd"/>
</svg>
