<svg xmlns="http://www.w3.org/2000/svg" viewBox="0 0 400 372.09302326" fill="red">
  <path d="M196.289 3.021c-1.654 1.662-3.007 3.255-3.007 3.539 0 .673 5.884 6.532 6.56 6.532.664 0 6.532-5.88 6.532-6.546 0-.674-5.872-6.546-6.546-6.546-.292 0-1.885 1.36-3.539 3.021m9.74 16.1l-6.367 6.374-6.208-6.201c-3.415-3.411-6.44-6.202-6.723-6.202-.567 0-32.726 32.003-32.726 32.566 0 .448 6.275 6.711 6.723 6.711.185 0 6.111-5.773 13.169-12.829l12.833-12.83 2.934 2.92 2.935 2.919-12.751 12.754c-7.013 7.015-12.751 12.987-12.751 13.271 0 .676 18.969 19.635 19.641 19.631.283-.002 3.295-2.879 6.693-6.393l6.18-6.389 6.399 6.393c3.52 3.516 6.554 6.392 6.743 6.392.559 0 19.461-19.078 19.461-19.642 0-.284-5.736-6.25-12.745-13.258l-12.746-12.741 2.99-3.003 2.989-3.003 12.903 12.904c7.096 7.097 13.001 12.904 13.122 12.904.367 0 6.58-6.363 6.565-6.725-.016-.42-32.207-32.896-32.607-32.896-.159 0-3.154 2.868-6.656 6.373m-.689 26.422c0 .139-1.265 1.511-2.812 3.05l-2.812 2.797-2.954-2.953-2.953-2.954 2.916-2.931 2.916-2.931 2.849 2.835c1.568 1.559 2.85 2.948 2.85 3.087m42.801 9.33c-1.749 1.756-3.18 3.346-3.18 3.533 0 .552 32.17 32.55 32.725 32.55.675 0 6.552-5.867 6.552-6.54 0-.574-31.996-32.736-32.567-32.736-.192 0-1.781 1.437-3.53 3.193M131.179 68.132c-8.858 8.86-16.106 16.266-16.106 16.458 0 .45 6.276 6.711 6.726 6.711.553 0 32.551-32.17 32.551-32.725 0-.675-5.867-6.552-6.541-6.552-.289 0-7.772 7.249-16.63 16.108m58.619-12.529l2.875 2.89-2.997 3.023-2.996 3.023-2.982-2.982-2.982-2.982 2.916-2.931c3.5-3.517 2.713-3.512 6.166-.041m25.88 5.894l-2.916 2.931-3.032-3.015-3.032-3.015 2.957-2.908 2.957-2.907 2.991 2.991 2.992 2.991-2.917 2.932m-64.862 12.838c-5.257 5.259-9.558 9.795-9.558 10.08 0 .65 18.954 19.633 19.603 19.633.516 0 19.673-18.994 19.673-19.506 0-.426-19.387-19.77-19.815-19.77-.19 0-4.646 4.303-9.903 9.563m77.833.042c-6.166 6.171-9.552 9.803-9.475 10.164.157.736 18.917 19.507 19.496 19.507.487 0 19.728-19.034 19.728-19.517 0-.418-19.394-19.759-19.813-19.758-.188 0-4.66 4.322-9.936 9.604m-32.532 6.68c-3.848 3.865-3.849 3.217.014 7.063 3.857 3.842 3.155 3.842 7.033-.001 3.885-3.85 3.883-3.224.016-7.075-3.864-3.848-3.216-3.849-7.063.013m-32.29 6.446l-2.931 2.931-3.01-3.009-3.009-3.01 2.916-2.931 2.916-2.932 3.024 3.01 3.025 3.011-2.931 2.93m77.854-.012l-2.911 2.948-3.015-3.012-3.015-3.012 2.917-2.931 2.916-2.932 3.01 2.996 3.009 2.996-2.911 2.947m-136.348 6.487c-1.654 1.661-3.007 3.254-3.007 3.538 0 .681 5.888 6.532 6.573 6.532.651 0 6.519-5.921 6.519-6.578 0-.652-5.891-6.514-6.546-6.514-.292 0-1.885 1.36-3.539 3.022m77.864 0c-1.654 1.661-3.008 3.254-3.008 3.538 0 .673 5.885 6.532 6.561 6.532.664 0 6.532-5.88 6.532-6.546 0-.674-5.872-6.546-6.546-6.546-.293 0-1.885 1.36-3.539 3.022m25.84 0c-1.654 1.661-3.008 3.206-3.008 3.432 0 .524 6.155 6.638 6.683 6.638.579 0 6.409-5.954 6.409-6.546 0-.674-5.871-6.546-6.546-6.546-.292 0-1.884 1.36-3.538 3.022m77.868.033c-3.649 3.7-3.667 3.025.182 6.857 3.855 3.84 3.241 3.826 6.891.159 3.711-3.729 3.711-3.702.158-7.236-3.557-3.538-3.524-3.539-7.231.22m-146.257 19.432c-3.848 3.865-3.85 3.217.013 7.063 3.864 3.849 3.217 3.85 7.063-.013 3.849-3.864 3.85-3.216-.013-7.063-3.864-3.848-3.216-3.85-7.063.013M0 140.224v27.907h9.302v9.302h18.605v-55.814h55.814v-9.302H18.605v55.814H9.302v-55.814H0v27.907m93.023-23.256v4.651h18.605v46.512H74.419v9.302H120.93v-65.116H93.023v4.651m74.419 27.907v32.558h9.647v-55.814h8.958v55.814h27.906v-55.814h37.21v-9.302h-46.512v55.814h-9.302v-55.814h-27.907v32.558m93.023 0v32.558h9.302v-18.604h9.303v18.604h9.302v-27.907h-18.605v-9.302h18.605v-27.907h-27.907v32.558m37.209-27.907v4.651h55.814v46.512h-18.604v9.302h27.907v-65.116H297.674v4.651m74.419 28.079v32.731h9.302v-37.554h9.303v37.554H400v-65.461h-27.907v32.73m-94.481-15.596l-3.18 3.194-3.194-3.181-3.194-3.18 3.181-3.194 3.18-3.194 3.194 3.181 3.194 3.18-3.181 3.194m111.628 0l-3.18 3.194-3.194-3.181-3.194-3.18 3.181-3.194 3.18-3.194 3.194 3.181 3.194 3.18-3.181 3.194m-295.104-.848c-3.836 3.852-3.82 3.212-.172 6.877l3.007 3.021-3.007 3.022c-1.655 1.662-3.008 3.17-3.008 3.352 0 .182 1.353 1.691 3.008 3.352l3.007 3.022-3.087 3.101-3.087 3.101 3.435 3.447 3.434 3.447 3.445-3.444 3.445-3.445-3.089-3.104-3.089-3.103 3.007-3.022c1.654-1.661 3.008-3.17 3.008-3.352 0-.182-1.354-1.69-3.008-3.352l-3.007-3.022 3.007-3.021c3.652-3.668 3.668-3.053-.186-6.891-3.864-3.848-3.216-3.849-7.063.014m241.861.344c-3.844 3.86-3.837 3.23-.079 6.971l3.101 3.086-3.18 3.194-3.181 3.194 3.087 3.1 3.086 3.101-3.007 3.022c-3.651 3.668-3.668 3.053.186 6.891 3.864 3.848 3.216 3.849 7.063-.014 3.836-3.852 3.82-3.213.173-6.877l-3.008-3.022 3.087-3.101 3.087-3.1-3.181-3.194-3.18-3.194 3.101-3.086c3.761-3.744 3.769-3.139-.092-6.984-3.864-3.849-3.217-3.85-7.063.013m-298.788 25.23v23.256h27.907v-9.302H46.512v-9.302h37.209v-27.907H37.209v23.255m93.024-9.302v13.954h18.604v9.302h-18.604v9.302H158.484v-27.907h-18.605v-9.302h18.605v-9.302H130.233v13.953m93.023 9.302v23.256h27.907V130.922h-27.907v23.255m74.418-9.302v13.954h18.605v9.302h-18.605v9.302h27.907V130.922h-9.302v18.604h-9.302v-18.604h-9.303v13.953m-223.255 0v4.651H46.512v-9.302h27.907v4.651m167.441 9.302v13.954h-9.302v-27.907h9.302v13.953m-26.873 41.344l-3.26 3.273 3.433 3.446c4.141 4.157 3.454 4.141 7.407.172l3.26-3.274-3.433-3.445c-4.141-4.157-3.454-4.141-7.407-.172m-131.266 22.05v23.256h27.907v-18.605h-9.302v9.303h-9.303v-27.907h9.303v9.302h9.302v-18.605H83.721v23.256m37.209 0v23.256h18.605v9.302H83.721v9.303h65.116V194.315h-9.302v37.21h-9.302v-37.21h-9.303v23.256m37.21 9.302v32.559h27.907v-27.907h-9.303v18.604h-9.302V203.618h9.302v18.604h9.303v-27.907H158.14v32.558m37.209 0v32.559H241.86v-9.303h-37.209v-55.814h-9.302v32.558m37.209-9.302v23.256h9.647v-37.209h8.958v37.209h27.907v-37.209h37.209v-9.303h-46.512v37.21h-8.957v-37.21h-28.252v23.256m-18.605 9.302v13.954h9.647V212.92h-9.647v13.953m74.419 0v13.954h18.605v9.302h-55.814v9.303h65.116V212.92h-27.907v13.953m17.306-3.366c1.662 1.654 3.021 3.169 3.021 3.366 0 .459-5.928 6.374-6.387 6.374-.441 0-6.36-5.932-6.36-6.374 0-.441 5.919-6.373 6.36-6.373.189 0 1.704 1.353 3.366 3.007m-200 47.559c-1.655 1.662-3.008 3.254-3.008 3.539 0 .673 5.884 6.532 6.56 6.532.665 0 6.532-5.88 6.532-6.546 0-.674-5.872-6.546-6.546-6.546-.292 0-1.884 1.359-3.538 3.021m45.482 6.542c-5.257 5.259-9.558 9.795-9.558 10.08 0 .562 18.909 19.633 19.466 19.633.432 0 19.811-19.35 19.811-19.781 0-.548-19.087-19.495-19.639-19.495-.287 0-4.822 4.303-10.08 9.563m32.381-6.542c-1.654 1.662-3.007 3.254-3.007 3.539 0 .673 5.884 6.532 6.56 6.532.665 0 6.532-5.88 6.532-6.546 0-.674-5.872-6.546-6.546-6.546-.292 0-1.884 1.359-3.539 3.021m25.84 0c-1.654 1.662-3.007 3.26-3.007 3.552 0 .659 5.925 6.519 6.592 6.519.642 0 6.5-5.899 6.5-6.546 0-.674-5.872-6.546-6.546-6.546-.292 0-1.885 1.359-3.539 3.021m19.643 6.542c-5.257 5.259-9.558 9.795-9.558 10.08 0 .562 18.909 19.633 19.466 19.633.45 0 19.81-19.36 19.81-19.81 0-.563-19.074-19.466-19.642-19.466-.285 0-4.818 4.303-10.076 9.563m58.211-6.513c-3.635 3.699-3.658 3.024.238 6.903 3.774 3.758 3.143 3.767 7.08-.091 3.781-3.704 3.778-3.138.033-6.823-3.788-3.728-3.677-3.728-7.351.011m-168.642 12.913c-1.746 1.769-3.175 3.358-3.175 3.533 0 .538 32.184 32.528 32.725 32.528.674 0 6.551-5.867 6.551-6.54 0-.577-31.997-32.737-32.571-32.737-.195 0-1.783 1.447-3.53 3.216m78.041-.194c-3.731 3.748-3.731 3.681.014 7.408 3.668 3.651 3.052 3.668 6.89-.186 3.849-3.865 3.85-3.217-.013-7.063-3.856-3.84-3.241-3.826-6.891-.159m64.776 13.098c-8.857 8.866-16.104 16.35-16.104 16.631 0 .665 5.886 6.526 6.554 6.526.673 0 32.723-32.063 32.719-32.732-.005-.657-5.917-6.545-6.573-6.545-.27 0-7.738 7.254-16.596 16.12m-97.147-12.236l2.834 2.849-3.022 3.008-3.021 3.008-2.901-2.916-2.9-2.916.668-.745c1.217-1.358 5.132-5.138 5.321-5.138.102 0 1.461 1.282 3.021 2.85m77.863 0l2.835 2.849-3.022 3.008-3.021 3.008-2.914-2.929-2.914-2.929 2.913-2.928c3.496-3.514 2.717-3.504 6.123-.079M177 303.448c-5.257 5.259-9.558 9.793-9.558 10.075 0 .282 5.738 6.253 12.75 13.267l12.751 12.754-2.934 2.919-2.935 2.92-12.832-12.83c-7.058-7.056-12.99-12.829-13.182-12.829-.45 0-6.71 6.276-6.71 6.727 0 .469 32.47 32.894 32.939 32.894.209 0 3.142-2.878 6.518-6.397l6.139-6.397 6.232 6.225c3.428 3.424 6.472 6.225 6.766 6.225.513 0 32.4-31.663 32.662-32.432.143-.422-6.118-6.845-6.673-6.845-.197 0-6.129 5.78-13.184 12.843l-12.825 12.842-2.928-2.941-2.928-2.942 12.745-12.741c7.01-7.008 12.745-12.976 12.745-13.263 0-.564-18.906-19.637-19.465-19.637-.186 0-3.17 2.827-6.63 6.284l-6.291 6.284-6.291-6.284c-3.46-3.457-6.523-6.284-6.807-6.284-.283 0-4.817 4.303-10.074 9.563m13.183 7.149l2.916 2.931-3.009 3.01-3.01 3.009-3.009-3.009-3.01-3.01 2.916-2.931c1.603-1.612 3-2.931 3.103-2.931.103 0 1.5 1.319 3.103 2.931m25.86 5.861l-2.951 2.905-2.923-2.918-2.924-2.917 2.916-2.932 2.917-2.931 2.958 2.944 2.958 2.945-2.951 2.904m-12.848 7.15l2.834 2.849-3.022 3.008-3.021 3.008-2.914-2.929-2.914-2.929 2.913-2.929c3.496-3.513 2.717-3.503 6.124-.078m-6.561 38.414c-1.654 1.662-3.008 3.255-3.008 3.539 0 .633 5.865 6.532 6.495 6.532.589 0 6.597-6.008 6.597-6.597 0-.639-5.902-6.495-6.546-6.495-.292 0-1.884 1.36-3.538 3.021" fill-rule="evenodd"/>
</svg>
