<svg xmlns="http://www.w3.org/2000/svg" viewBox="0 0 430.3 430.3" fill="rgba(255, 255, 255, 0.8)"><path d="M120 234c0-12-4-28-9-41-5-12-13-27-25-27-5 0-10 3-14 7-5-10-12-20-22-20-12 0-20 14-25 26-6 14-9 30-9 41 0 25 17 29 28 30v34a5 5 0 1011 0v-34c6 11 17 13 25 13v35a5 5 0 1011 0v-35c11 0 29-4 29-29zm-93-14c0-10 3-25 8-36 6-15 12-20 15-20 4 0 10 6 15 20l-4 9a120 120 0 00-9 46h-2c-17 0-23-5-23-19zm59 33c-17 0-23-5-23-19 0-11 3-25 8-37 6-14 12-20 15-20s9 6 15 20c5 12 8 26 8 37 0 14-6 19-23 19z"/><path d="M425 119h-17v-7c6-2 11-5 11-15 0-9-5-31-17-31s-17 22-17 31c0 10 6 13 12 15v9c-18 2-36 8-54 16l-35-6-3-1c-39-15-80-25-122-30-4-13-11-28-21-28s-17 12-20 25h-31v-5c6-1 12-5 12-15 0-8-5-30-17-30S89 69 89 77c0 10 5 14 11 15v5l-27 2v-4c7-1 12-5 12-15 0-8-5-30-17-30S51 72 51 80c0 10 5 14 11 15v5l-54 9a5 5 0 003 11c42-10 85-14 128-12v7c0 16 10 20 17 21v19a5 5 0 1011 0v-19c7-1 18-5 18-21v-4c32 4 63 12 94 22-22 2-48 7-73 15-31 9-69 25-80 52-4 8-4 16 0 23 12 19 57 22 104 25 35 2 74 4 84 15 1 2 2 3 1 5 0 12-38 22-55 26-34 7-78 14-121 19-79 11-127 18-138 32a5 5 0 109 7c2-3 10-8 43-14 24-5 55-9 87-14 111-15 184-27 186-55 1-5-1-9-4-13-13-14-49-17-92-19-40-3-85-6-95-20-2-4-2-8 1-13 7-18 33-34 73-46 34-10 72-16 94-16l7 1c-17 2-37 6-56 10-38 9-64 20-77 31-3 3-11 9-8 17 4 9 21 8 64 6 55-4 139-9 167 25 10 12 14 25 13 38-4 33-43 64-69 84-17 12-23 18-24 23a5 5 0 0011 2c1-3 11-10 19-17 28-21 70-53 74-91 2-16-4-32-16-46-32-39-115-33-176-29-20 1-45 3-52 0l4-4c21-18 85-32 129-38l-8 5a6 6 0 007 9 189 189 0 01113-38 5 5 0 000-11zm-23-42c3 3 6 13 6 20 0 3 0 4-6 4l-5-1-1-3c0-7 4-17 6-20zM68 85l-5-1-1-4c0-7 3-17 6-19 2 2 6 12 6 19 0 3 0 5-6 5zm38-3l-5-1-1-4c0-7 3-16 6-19 2 3 6 12 6 19 0 4 0 5-6 5zm56 43c-10 0-12-2-12-10 0-5 1-14 4-21 4-9 7-11 8-11s4 2 7 11c3 7 5 16 5 21 0 8-3 10-12 10z"/></svg>
