<svg height="512" width="512" xmlns="http://www.w3.org/2000/svg" fill="rgba(255, 255, 255, 0.8)"><path d="M497 183h-8L382 61a15 15 0 00-23 0l-29 34-63-89a15 15 0 00-24 0l-62 87-29-32a15 15 0 00-22 0L23 183h-8a15 15 0 000 30h140c-30 18-49 40-55 65-15 58 40 116 76 154l24 27c6 9 7 16-5 27a15 15 0 1021 22c28-28 18-53 9-66-6-9-16-19-27-31-32-33-80-84-69-125 7-29 41-53 100-73h59c-24 18-36 36-38 56-4 44 44 79 93 116 48 35 98 72 89 109a15 15 0 0030 6c6-26-3-51-28-78-19-22-46-42-73-61-41-31-83-62-81-89 2-18 25-38 66-59h151a15 15 0 100-30zM371 94l78 89h-56l-45-63zm-230 0l22 25-46 64H63zm114-53l101 142H154z"/></svg>
