<svg xmlns="http://www.w3.org/2000/svg" fill="#ff0000" viewBox="0 0 60 60">
  <path d="M30 0C13.46 0 0 13.46 0 30s13.46 30 30 30 30-13.46 30-30S46.54 0 30 0zm20.24 42.9l-.65.97-.1.13c-.21.3-.44.6-.66.88l-.14.17-.68.8-.16.2a23.38 23.38 0 01-1.81 1.8l-.17.15-.83.7-.15.12-.9.68-.12.08c-.32.23-.64.45-.97.66l-.05.03-8.02-13.9.06-.05c.53-.42 1.01-.9 1.43-1.43l.05-.06 13.9 8.03-.03.05zM9.77 17.1c.2-.32.41-.63.63-.94l.11-.16.65-.85.15-.2.66-.77.18-.22a23.92 23.92 0 011.8-1.8l.2-.16c.26-.24.53-.46.8-.68l.17-.14c.3-.23.58-.45.88-.66l.13-.1.97-.65.04-.03 8.03 13.9-.06.05c-.53.41-1.01.9-1.43 1.43l-.05.06-13.9-8.03.04-.05zm26.55 8.02a8.06 8.06 0 00-1.43-1.43l-.06-.05 8.02-13.88a24.18 24.18 0 017.4 7.4l-13.88 8.02-.05-.06zM25.17 36.37l-8.02 13.89a24.18 24.18 0 01-7.4-7.41l13.88-8.02.05.06c.42.53.9 1.01 1.43 1.43l.06.05zM35 30a5 5 0 11-10 0 5 5 0 0110 0zm-1.9-7.37a7.92 7.92 0 00-2.1-.56V6.02c3.58.15 7.02 1.08 10.12 2.71l-8.02 13.9zm-4.1-.56a7.9 7.9 0 00-2.1.56l-8.03-13.9A23.84 23.84 0 0129 6.03v16.04zm-6.37 4.83a7.92 7.92 0 00-.56 2.1H6.02a23.82 23.82 0 012.7-10.13l13.9 8.03zm-.56 4.1c.1.73.28 1.44.56 2.1l-13.9 8.02A23.81 23.81 0 016.03 31h16.04zm4.83 6.37c.66.28 1.37.47 2.1.56v16.05a23.78 23.78 0 01-10.12-2.71l8.02-13.9zm4.1.56a7.9 7.9 0 002.1-.56l8.03 13.9A23.84 23.84 0 0131 53.97V37.94zm6.37-4.83c.28-.66.47-1.37.56-2.1h16.05a23.83 23.83 0 01-2.7 10.13l-13.9-8.03zm.56-4.1a7.9 7.9 0 00-.56-2.1l13.9-8.02A23.8 23.8 0 0153.97 29H37.94z"/>
</svg>
