<?xml version="1.0" encoding="utf-8"?>
<svg viewBox="0 0 500 500" xmlns="http://www.w3.org/2000/svg">
  <path d="M 375.372 168.967 C 373.372 165.967 369.372 163.967 366.372 164.967 C 290.965 183.989 212.098 184.675 136.372 166.967 L 136.372 132.967 L 256.372 132.967 C 260.372 132.967 264.372 128.967 264.372 124.967 L 264.372 60.967 C 264.372 56.967 260.372 52.967 256.372 52.967 L 136.372 52.967 L 136.372 44.967 C 136.372 38.809 129.705 34.96 124.372 38.039 C 121.897 39.468 120.372 42.109 120.372 44.967 L 120.372 170.967 L 9.372 376.967 C 6.292 382.301 10.141 388.967 16.299 388.968 C 16.324 388.968 16.348 388.968 16.372 388.967 L 480.372 388.967 C 486.53 389.023 490.439 382.391 487.408 377.03 C 487.396 377.009 487.384 376.988 487.372 376.967 Z M 248.372 68.967 L 248.372 116.967 L 136.372 116.967 L 136.372 100.967 L 176.372 100.967 C 182.53 100.967 186.379 94.301 183.3 88.967 C 181.871 86.492 179.23 84.967 176.372 84.967 L 136.372 84.967 L 136.372 68.967 Z M 128.372 189.967 L 227.372 372.967 L 189.372 372.967 L 135.372 272.967 L 134.372 271.967 C 132.908 270.137 130.715 269.04 128.372 268.967 C 126.029 269.04 123.836 270.137 122.372 271.967 L 121.372 272.967 L 67.372 372.967 L 29.372 372.967 Z M 120.372 308.967 L 120.372 372.967 L 85.372 372.967 Z M 136.372 372.967 L 136.372 308.967 L 171.372 372.967 Z M 245.372 372.967 L 144.372 184.967 C 217.012 200.382 292.179 199.357 364.372 181.967 L 467.372 372.967 Z M 245.372 372.967"/>
  <path d="M 208.372 100.967 L 250.148 100.424 C 256.306 100.424 256.237 85.378 250.079 85.447 C 238.441 85.578 219.23 84.967 216.372 84.967 L 171.881 84.858 C 165.722 84.858 165.158 100.866 170.818 101.094 C 174.314 101.235 205.514 100.967 208.372 100.967 Z M 376.372 356.967 L 424.372 356.967 C 430.53 356.967 434.379 350.301 431.3 344.967 C 429.871 342.492 427.23 340.967 424.372 340.967 L 376.372 340.967 C 370.213 340.967 366.364 347.634 369.444 352.967 C 370.873 355.443 373.514 356.967 376.372 356.967 Z M 344.372 340.967 L 336.372 340.967 C 330.213 340.967 326.364 347.634 329.444 352.967 C 330.873 355.443 333.514 356.967 336.372 356.967 L 344.372 356.967 C 350.53 356.967 354.379 350.301 351.3 344.967 C 349.871 342.492 347.23 340.967 344.372 340.967 Z M 272.372 340.967 L 264.372 340.967 C 258.213 340.967 254.364 347.634 257.444 352.967 C 258.873 355.443 261.514 356.967 264.372 356.967 L 272.372 356.967 C 278.53 356.967 282.379 350.301 279.3 344.967 C 277.871 342.492 275.23 340.967 272.372 340.967 Z M 48.372 420.967 L 40.372 420.967 C 34.213 420.967 30.364 427.634 33.444 432.967 C 34.873 435.443 37.514 436.967 40.372 436.967 L 48.372 436.967 C 54.53 436.967 58.379 430.301 55.3 424.967 C 53.871 422.492 51.23 420.967 48.372 420.967 Z M 104.372 436.967 L 96.372 436.967 C 90.213 436.967 86.364 443.634 89.444 448.967 C 90.873 451.443 93.514 452.967 96.372 452.967 L 104.372 452.967 C 110.53 452.967 114.379 446.301 111.3 440.967 C 109.871 438.492 107.23 436.967 104.372 436.967 Z M 184.372 420.967 L 176.372 420.967 C 170.213 420.967 166.364 427.634 169.444 432.967 C 170.873 435.443 173.514 436.967 176.372 436.967 L 184.372 436.967 C 190.53 436.967 194.379 430.301 191.3 424.967 C 189.871 422.492 187.23 420.967 184.372 420.967 Z M 224.372 436.967 L 216.372 436.967 C 210.213 436.967 206.364 443.634 209.444 448.967 C 210.873 451.443 213.514 452.967 216.372 452.967 L 224.372 452.967 C 230.53 452.967 234.379 446.301 231.3 440.967 C 229.871 438.492 227.23 436.967 224.372 436.967 Z M 296.372 428.967 L 288.372 428.967 C 282.213 428.967 278.364 435.634 281.444 440.967 C 282.873 443.443 285.514 444.967 288.372 444.967 L 296.372 444.967 C 302.53 444.967 306.379 438.301 303.3 432.967 C 301.871 430.492 299.23 428.967 296.372 428.967 Z M 416.372 420.967 L 408.372 420.967 C 402.213 420.967 398.364 427.634 401.444 432.967 C 402.873 435.443 405.514 436.967 408.372 436.967 L 416.372 436.967 C 422.53 436.967 426.379 430.301 423.3 424.967 C 421.871 422.492 419.23 420.967 416.372 420.967 Z M 456.372 436.967 L 448.372 436.967 C 442.213 436.967 438.364 443.634 441.444 448.967 C 442.873 451.443 445.514 452.967 448.372 452.967 L 456.372 452.967 C 462.53 452.967 466.379 446.301 463.3 440.967 C 461.871 438.492 459.23 436.967 456.372 436.967 Z M 456.372 436.967"/>
</svg>