<svg height="640" viewBox="0 -32 480 480" width="640" xmlns="http://www.w3.org/2000/svg"><path d="M367 132c-2-3-6-5-9-4a487 487 0 01-230 2V96h120c4 0 8-4 8-8V24c0-4-4-8-8-8H128V8a8 8 0 00-16 0v126L1 340a8 8 0 007 12h464a8 8 0 007-12zM240 32v48H128V64h40a8 8 0 000-16h-40V32zM120 153l99 183h-38l-54-100-1-1a8 8 0 00-6-3 8 8 0 00-6 3l-1 1-54 100H21zm-8 119v64H77zm16 64v-64l35 64zm109 0L136 148a498 498 0 00220-3l103 191zm0 0"/><path d="M200 64h8a8 8 0 000-16h-8a8 8 0 000 16zm0 0M368 320h48a8 8 0 000-16h-48a8 8 0 000 16zm0 0M336 304h-8a8 8 0 000 16h8a8 8 0 000-16zm0 0M264 304h-8a8 8 0 000 16h8a8 8 0 000-16zm0 0M40 384h-8a8 8 0 000 16h8a8 8 0 000-16zm0 0M96 400h-8a8 8 0 000 16h8a8 8 0 000-16zm0 0M176 384h-8a8 8 0 000 16h8a8 8 0 000-16zm0 0M216 400h-8a8 8 0 000 16h8a8 8 0 000-16zm0 0M288 392h-8a8 8 0 000 16h8a8 8 0 000-16zm0 0M408 384h-8a8 8 0 000 16h8a8 8 0 000-16zm0 0M448 400h-8a8 8 0 000 16h8a8 8 0 000-16zm0 0"/></svg>