<svg xmlns="http://www.w3.org/2000/svg" viewBox="-20 -30 360 416.3">
  <path d="M174 255c-49 0-98-1-146-3-13-1-20-11-20-20 1-18 11-46 17-64 6-22 14-39 4-84 33-1 38 11 56 9 11-1 14-11 22-17 6 1 10 3 12 7l9 13-14 8c-9 4-2 17 6 13l17-9 14 15-15 12c-7 5 2 16 9 11l16-13 16 15-12 15c-6 7 4 16 10 9l13-15 19 13-6 14c-4 9 8 15 12 6l6-12 19 8v13c0 9 14 9 14 0v-9c17-1 36-2 53 1 29 4 23 45 5 52a379 379 0 01-136 12zM79 129c14 0 25 11 25 25s-11 25-25 25c-13 0-25-11-25-25s12-25 25-25zm-59 83c-3 7-3 14-4 21 1 6 5 11 12 11a3641 3641 0 00234 2c19-2 32-5 46-11 8-3 17-33-4-37l-34-1c5 7 9 14 3 18-18 15-75 10-101 10l-129-3c-9-2-17-5-23-10z"/>
</svg>
