<svg xmlns="http://www.w3.org/2000/svg" viewBox="-300 -200 1550 1550">
  <path d="M747 728c-193 47-26 290 101 249 59-18 104-95 76-172-23-62-99-96-177-77zM78 958c-39 14-57 56-34 104 16 34 48 66 101 42 105-48 6-173-67-146zM687 22c-30 17-74 40-52 97 14 36 47 68 98 59 98-16 42-203-46-156zM86 5C0 40 62 210 165 159c100-48 3-187-79-154zm322 753c-28 6-59 11-84 49-65 97 51 229 132 229 136 1 140-323-48-278zm406-476c-37 18-54 27-73 64-43 81-22 275 150 201 129-56 122-200 32-250-27-15-76-31-109-15zM328 179c-38 15-57 26-75 62-45 92 73 249 170 225 60-15 98-113 77-193-17-67-87-128-172-94zM156 436c-272 1-140 341 30 335 87-2 157-92 157-181-1-99-85-154-187-154z"/>
</svg>
