<svg xmlns="http://www.w3.org/2000/svg" viewBox="0 -15 100 125">
  <path d="M95 56l-4-2c-4-3-10-7-19-7l-5 1-2-2-3-2 2-1c2-1 5-4 10-4 6 0 9 3 12 4l3 2a1 1 0 000-1l-3-2a20 20 0 00-13-4l-2-1-8-4h1c1-1 3-2 7-2l7 2 2 1a1 1 0 000-1h-2c-1-2-4-3-7-3-4 0-6 1-8 3h-1-1l-2 1-1-1c-2-1-4-3-8-3s-6 2-7 3l-2 1-2-1h-1-1c-1-2-4-3-8-3-3 0-6 1-7 3h-2a1 1 0 000 1l2-1 7-2 8 2-8 4-2 1h-1c-6 0-10 2-12 4l-3 2a1 1 0 000 1l4-2c2-1 6-4 11-4s8 3 11 4l1 1-3 2-2 2-5-1c-9 0-15 4-19 7l-4 2a1 1 0 000 3l6-3c4-3 9-6 17-6s13 4 17 6c-8 2-14 6-18 8l-5 3a1 1 0 100 3l7-3c5-3 11-8 21-8s17 5 22 8l6 3a2 2 0 000-3l-4-2c-5-3-10-7-19-9h1c3-3 9-6 16-6 9 0 14 4 18 6 2 2 3 3 5 3a1 1 0 100-3zM43 33l7-2c3 0 6 1 7 3h1l-6 3-2 1-2-1-6-3 1-1zm-5 9l-9-4h1c2-2 5-3 9-3s7 2 8 3l3 1 3-1c2-2 4-3 8-3 5 0 8 2 9 3h1l-8 4-2 1a22 22 0 00-21 0l-2-1zm16 12l-3 2h-1-1l-2-2-12-6h2c3-2 7-5 13-5 7 0 11 3 14 5h1l-11 6z"/>
</svg>
