<svg xmlns="http://www.w3.org/2000/svg" viewBox="0 -15 110 125">
  <path d="M55 59a596 596 0 00-3-11c-2 23-2 27-5 27s-4-5-4-18l-2-16-1 10c-1 8-1 14-5 14s-4-5-5-8l-1-5-2 2c0 1-1 3-4 3l-4-2-2-1-2 1-4 1H5l-1-1 1-2h6l3-1 3-1 4 2 2 1 1-1c1-2 2-4 5-4s4 4 4 7l2 6 2-12c0-7 1-13 4-13s4 5 5 19l1 14 2-23c1-21 1-25 4-25s3 3 4 37l2 25 1-34c2-43 2-45 5-45s3 3 4 34l2 32 2-16c0-16 1-21 4-21 3 1 4 5 5 14l1 9 1-1c1-1 2-3 5-3h5l1 2-1 1h-5l-2 2c-1 1-2 3-4 3-3 0-3-5-4-13l-2-10-1 17c-1 15-2 21-5 21s-4-4-5-38l-1-24-2 36c-1 42-2 44-4 44-3 0-3-3-4-35z"/>
</svg>
